<svg xmlns="http://www.w3.org/2000/svg" width="100px" data-name="Logo" fill="" viewBox="0 0 52.96 16.54" class="css-r5kr88 e76oof0"><defs></defs><g style="isolation:isolate"><path d="M0 2.76h1.58v3.5a3 3 0 012.36-1 2.94 2.94 0 013 3.25v4.5H5.4V8.69c0-1.4-.76-2.12-1.91-2.12s-1.92.72-1.92 2.12v4.26H0zM12.26 13.07a3.7 3.7 0 01-3.81-3.94 3.65 3.65 0 013.81-3.93 3.56 3.56 0 013.71 3.75 5.22 5.22 0 01-.06.78h-5.82a2.1 2.1 0 002.17 2 1.86 1.86 0 001.8-1.07h1.7a3.48 3.48 0 01-3.5 2.41zM10.1 8.45h4.22a2 2 0 00-2.13-1.92 2.08 2.08 0 00-2.09 1.92zM22.93 8.69c0-1.4-.76-2.12-1.91-2.12s-1.92.72-1.92 2.12v4.26h-1.58V5.32h1.58v.88a2.9 2.9 0 012.27-1 3 3 0 013.12 3.25v4.5h-1.56zM27.21 8.37V7.18c.88-.1 1.37-.56 1.37-1.27 0-1.06-.24-2.68-.24-3.82A1.94 1.94 0 0130.4 0h1v1.37h-.61c-.58 0-.87.24-.87.84 0 1 .22 2.56.22 3.75a1.67 1.67 0 01-1.48 1.8 1.66 1.66 0 011.44 1.8c0 1.19-.22 2.79-.22 3.75 0 .59.29.84.87.84h.65v1.37h-1a2 2 0 01-2.09-2.09c0-1.15.24-2.77.24-3.82.03-.69-.46-1.14-1.34-1.24zM35.22 12.95h-1.58V5.32h1.58v1.11A2.48 2.48 0 0137.5 5.2v1.63h-.4c-1.16 0-1.88.49-1.88 2.11zM41.95 9.64c0 1 .23 2.67.23 3.82a2 2 0 01-2.09 2.09h-.93v-1.37h.61c.58 0 .87-.25.87-.84 0-1-.22-2.56-.22-3.75a1.66 1.66 0 011.44-1.83 1.67 1.67 0 01-1.46-1.8c0-1.19.22-2.8.22-3.75 0-.6-.29-.84-.87-.84h-.61V0h.93a1.94 1.94 0 012.09 2.09c0 1.14-.23 2.76-.23 3.82 0 .71.48 1.17 1.37 1.27v1.19c-.9.1-1.35.55-1.35 1.27zM51.33 5.32h1.63l-4.68 11.21h-1.63l1.55-3.71-3-7.5h1.76l2.14 5.82z"></path></g></svg>